HIERARCHY
ROOT Hips
{
	OFFSET 0.000000 0.000000 0.000000
	CHANNELS 6 Xposition Yposition Zposition Zrotation Yrotation Xrotation 
	JOINT LHipJoint
	{
		OFFSET 0.000000 0.000000 0.000000
		CHANNELS 3 Zrotation Yrotation Xrotation
		JOINT LeftUpLeg
		{
			OFFSET 1.363060 -1.794630 0.839290
			CHANNELS 3 Zrotation Yrotation Xrotation
			JOINT LeftLeg
			{
				OFFSET 2.448110 -6.726130 0.000000
				CHANNELS 3 Zrotation Yrotation Xrotation
				JOINT LeftFoot
				{
					OFFSET 2.562200 -7.039590 0.000000
					CHANNELS 3 Zrotation Yrotation Xrotation
					JOINT LeftToeBase
					{
						OFFSET 0.157640 -0.433110 2.322550
						CHANNELS 3 Zrotation Yrotation Xrotation
						End Site
						{
							OFFSET 0.000000 0.000000 0.000000
						}
					}
				}
			}
		}
	}
	JOINT RHipJoint
	{
		OFFSET 0.000000 0.000000 0.000000
		CHANNELS 3 Zrotation Yrotation Xrotation
		JOINT RightUpLeg
		{
			OFFSET -1.305520 -1.794630 0.839290
			CHANNELS 3 Zrotation Yrotation Xrotation
			JOINT RightLeg
			{
				OFFSET -2.542530 -6.985550 0.000000
				CHANNELS 3 Zrotation Yrotation Xrotation
				JOINT RightFoot
				{
					OFFSET -2.568260 -7.056230 0.000000
					CHANNELS 3 Zrotation Yrotation Xrotation
					JOINT RightToeBase
					{
						OFFSET -0.164730 -0.452590 2.363150
						CHANNELS 3 Zrotation Yrotation Xrotation
						End Site
						{
							OFFSET 0.000000 0.000000 0.000000
						}
					}
				}
			}
		}
	}
	JOINT LowerBack
	{
		OFFSET 0.000000 0.000000 0.000000
		CHANNELS 3 Zrotation Yrotation Xrotation
		JOINT Spine
		{
			OFFSET 0.028270 2.035590 -0.193380
			CHANNELS 3 Zrotation Yrotation Xrotation
			JOINT Spine1
			{
				OFFSET 0.056720 2.048850 -0.042750
				CHANNELS 3 Zrotation Yrotation Xrotation
				JOINT Neck
				{
					OFFSET 0.000000 0.000000 0.000000
					CHANNELS 3 Zrotation Yrotation Xrotation
					JOINT Neck1
					{
						OFFSET -0.054170 1.746240 0.172020
						CHANNELS 3 Zrotation Yrotation Xrotation
						JOINT Head
						{
							OFFSET 0.104070 1.761360 -0.123970
							CHANNELS 3 Zrotation Yrotation Xrotation
							End Site
							{
								OFFSET 0.000000 0.000000 0.000000
							}
						}
					}
				}
				JOINT LeftShoulder
				{
					OFFSET 0.000000 0.000000 0.000000
					CHANNELS 3 Zrotation Yrotation Xrotation
					JOINT LeftArm
					{
						OFFSET 3.362410 1.200890 -0.311210
						CHANNELS 3 Zrotation Yrotation Xrotation
						JOINT LeftForeArm
						{
							OFFSET 4.983000 -0.000000 -0.000000
							CHANNELS 3 Zrotation Yrotation Xrotation
							JOINT LeftHand
							{
								OFFSET 3.483560 -0.000000 -0.000000
								CHANNELS 3 Zrotation Yrotation Xrotation
								JOINT LeftFingerBase
								{
									OFFSET 0.000000 0.000000 0.000000
									CHANNELS 3 Zrotation Yrotation Xrotation
									JOINT LeftHandIndex1
									{
										OFFSET 0.715260 -0.000000 -0.000000
										CHANNELS 3 Zrotation Yrotation Xrotation
										End Site
										{
											OFFSET 0.000000 0.000000 0.000000
										}
									}
								}
								JOINT LThumb
								{
									OFFSET 0.000000 0.000000 0.000000
									CHANNELS 3 Zrotation Yrotation Xrotation
									End Site
									{
										OFFSET 0.000000 0.000000 0.000000
									}
								}
							}
						}
					}
				}
				JOINT RightShoulder
				{
					OFFSET 0.000000 0.000000 0.000000
					CHANNELS 3 Zrotation Yrotation Xrotation
					JOINT RightArm
					{
						OFFSET -3.136600 1.374050 -0.404650
						CHANNELS 3 Zrotation Yrotation Xrotation
						JOINT RightForeArm
						{
							OFFSET -5.241900 -0.000000 -0.000000
							CHANNELS 3 Zrotation Yrotation Xrotation
							JOINT RightHand
							{
								OFFSET -3.444170 -0.000000 -0.000000
								CHANNELS 3 Zrotation Yrotation Xrotation
								JOINT RightFingerBase
								{
									OFFSET 0.000000 0.000000 0.000000
									CHANNELS 3 Zrotation Yrotation Xrotation
									JOINT RightHandIndex1
									{
										OFFSET -0.622530 -0.000000 -0.000000
										CHANNELS 3 Zrotation Yrotation Xrotation
										End Site
										{
											OFFSET 0.000000 0.000000 0.000000
										}
									}
								}
								JOINT RThumb
								{
									OFFSET 0.000000 0.000000 0.000000
									CHANNELS 3 Zrotation Yrotation Xrotation
									End Site
									{
										OFFSET 0.000000 0.000000 0.000000
									}
								}
							}
						}
					}
				}
			}
		}
	}
}
MOTION
Frames: 8
Frame Time: 0.008333
1.082282 17.859460 -17.023306 -0.353331 -2.781587 7.079928 3.358113 2.918103 1.083105 -23.365095 -7.272856 -10.589432 0.769341 6.037981 19.492914 -0.709328 5.049005 -4.564452 0.022300 0.964700 2.651600 -5.562087 -3.532110 0.562382 27.723245 11.648327 -8.322018 -1.927110 -6.453130 21.017806 0.768258 -6.660327 -7.196477 -0.131700 -2.338900 6.443300 -0.307666 0.072770 4.521272 1.089071 -0.287385 -1.009436 3.193432 0.302354 -4.065423 -8.841245 -5.119441 -13.287351 5.386897 -5.673916 11.815329 3.357600 -2.900600 8.725700 -7.002751 3.368747 -2.271926 -82.380180 1.834342 24.547229 13.908738 -24.866629 -3.676209 -0.808105 -2.336160 8.686836 17.491768 18.932764 6.754600 -7.125000 0.000000 0.000000 -10.988400 52.066700 -1.931000 5.321964 -2.401088 -2.013818 82.412897 -0.916942 21.113794 -16.723055 24.703551 -4.619883 0.569861 -0.532085 3.310978 -9.477316 14.107798 -2.562500 7.125000 0.000000 0.000000 11.825500 -15.381700 8.449700 
1.082983 17.859460 -17.025109 -0.310450 -2.672571 7.097357 3.358616 2.917871 1.085041 -23.391978 -7.286189 -10.626190 0.768152 6.035881 19.485967 -0.680726 4.896524 -4.531955 0.026100 1.043500 2.868600 -5.559392 -3.534665 0.561379 27.678448 11.561734 -8.386075 -1.930513 -6.461248 21.038973 0.776254 -6.702582 -7.160196 -0.125400 -2.282500 6.287100 -0.321358 0.042355 4.540957 1.083861 -0.328763 -1.023537 3.188877 0.283166 -4.098989 -8.866097 -5.100854 -13.336324 5.381041 -5.640581 11.874780 3.363300 -2.887600 8.756000 -7.007898 3.368639 -2.272744 -82.412545 1.820064 24.469055 13.860129 -24.794412 -3.652866 -0.959535 -2.231228 8.887603 18.905274 17.349398 6.840300 -7.125000 0.000000 0.000000 -8.859800 50.636700 -1.239000 5.323249 -2.401395 -2.016306 82.419819 -0.943199 21.039176 -16.698570 24.667871 -4.602024 0.583397 -0.551678 3.460375 -9.668483 14.325335 -2.657200 7.125000 0.000000 0.000000 11.680300 -15.136200 8.404400 
1.083284 17.861063 -17.025810 -0.315596 -2.660739 7.115195 3.359600 2.915981 1.083353 -23.384328 -7.211795 -10.723671 0.777377 6.060907 19.555208 -0.655941 4.773326 -4.555169 0.026900 1.058400 2.909600 -5.560256 -3.533898 0.562379 27.681478 11.585327 -8.396886 -1.930535 -6.462133 21.039339 0.783493 -6.738505 -7.123433 -0.126400 -2.291800 6.312700 -0.310326 0.030177 4.510089 1.085821 -0.344761 -1.014795 3.186193 0.273884 -4.060373 -8.883677 -5.110444 -13.379161 5.369296 -5.644412 11.869529 3.361100 -2.890600 8.762700 -7.009974 3.369826 -2.272274 -82.428987 1.806617 24.421403 13.853688 -24.782533 -3.644577 -0.965735 -2.238735 8.884792 18.997734 17.447951 6.912500 -7.125000 0.000000 0.000000 -8.799100 50.763000 -1.257900 5.327024 -2.403337 -2.014819 82.399918 -0.924912 21.022201 -16.647755 24.602108 -4.572315 0.590295 -0.588733 3.621891 -9.753675 14.738563 -2.761300 7.125000 0.000000 0.000000 11.606300 -14.686000 8.463100 
1.084186 17.858558 -17.024808 -0.322950 -2.675210 7.099607 3.361854 2.917383 1.083959 -23.401370 -7.118752 -10.759318 0.789820 6.089750 19.641960 -0.645462 4.721314 -4.565492 0.025500 1.031800 2.836200 -5.557900 -3.535301 0.558671 27.689579 11.525196 -8.365991 -1.926814 -6.450176 21.007547 0.784129 -6.729632 -7.074330 -0.117500 -2.209900 6.086100 -0.279201 0.034149 4.515630 1.066305 -0.336965 -1.012578 3.130154 0.275962 -4.057814 -8.875565 -5.109869 -13.450698 5.413012 -5.648388 11.942856 3.375000 -2.887200 8.807300 -7.009168 3.371395 -2.277826 -82.362192 1.846278 24.524340 13.887300 -24.835846 -3.658892 -0.946392 -2.264732 8.801407 18.886010 17.814262 6.990600 -7.125000 0.000000 0.000000 -9.055800 51.140500 -1.379500 5.326060 -2.403859 -2.014040 82.442761 -0.949229 21.008487 -16.618416 24.562148 -4.554435 0.597030 -0.612523 3.643985 -9.822183 15.020628 -2.836200 7.125000 0.000000 0.000000 11.549100 -14.378400 8.497000 
1.085287 17.854752 -17.024708 -0.314173 -2.730622 7.092347 3.362437 2.916660 1.084896 -23.434458 -7.108179 -10.799083 0.805196 6.127646 19.749910 -0.650308 4.743143 -4.525209 0.024500 1.010600 2.778000 -5.559173 -3.536576 0.554467 27.683469 11.474137 -8.344721 -1.918884 -6.427347 20.942982 0.780011 -6.688155 -7.007854 -0.087100 -1.903300 5.238500 -0.329894 0.055255 4.498796 1.084040 -0.312526 -1.012373 3.198604 0.289579 -4.049244 -8.983180 -5.121123 -13.427368 5.442816 -5.637979 11.911404 3.407100 -2.886700 8.795700 -7.006850 3.377552 -2.279195 -82.422037 1.882057 24.533240 13.916090 -24.881894 -3.679880 -0.948207 -2.250935 8.854229 18.861601 17.628444 6.916600 -7.125000 0.000000 0.000000 -9.012100 50.932500 -1.326500 5.325086 -2.401913 -2.013342 82.371259 -0.958395 21.050405 -16.606496 24.546848 -4.545198 0.609686 -0.619881 3.578963 -9.957189 15.129845 -2.897900 7.125000 0.000000 0.000000 11.448800 -14.253000 8.451200 
1.086289 17.850544 -17.025309 -0.384737 -2.766382 7.077180 3.360901 2.915762 1.086346 -23.343524 -7.152461 -10.839259 0.816755 6.160241 19.838870 -0.651488 4.760508 -4.583787 0.026500 1.051300 2.890000 -5.563186 -3.538409 0.549455 27.795114 11.416585 -8.303037 -1.909890 -6.402554 20.873141 0.802941 -6.786418 -6.841328 -0.034300 -1.195400 3.286700 -0.309929 0.067417 4.475984 1.120241 -0.295846 -1.001333 3.266393 0.297779 -4.015643 -9.063644 -5.167634 -13.377193 5.431498 -5.678019 11.815871 3.413200 -2.911200 8.756300 -7.005122 3.381936 -2.275538 -82.492567 1.863424 24.471343 13.912818 -24.878655 -3.685395 -0.976109 -2.211994 9.023194 19.028702 17.098913 6.803600 -7.125000 0.000000 0.000000 -8.641200 50.385900 -1.154600 5.328040 -2.401136 -2.011776 82.311460 -0.948585 21.045221 -16.600554 24.541122 -4.542421 0.609393 -0.615979 3.607240 -9.959433 15.075474 -2.887900 7.125000 0.000000 0.000000 11.448300 -14.311000 8.436400 
1.087191 17.848040 -17.026912 -0.420034 -2.747649 7.023646 3.361764 2.915783 1.087204 -23.290644 -7.256580 -10.785609 0.823828 6.180686 19.898917 -0.656996 4.816700 -4.757606 0.030900 1.134100 3.117700 -5.562742 -3.538865 0.537742 27.860232 11.333379 -8.208324 -1.899901 -6.371898 20.789508 0.823574 -6.869462 -6.668244 -0.021200 -0.939800 2.583200 -0.259101 0.074357 4.517588 1.118137 -0.280933 -0.951527 3.227077 0.299029 -3.929089 -9.080464 -5.195441 -13.519481 5.495923 -5.706605 11.826466 3.434500 -2.916100 8.794500 -7.012544 3.379172 -2.265654 -82.481791 1.666172 24.453075 13.833432 -24.755154 -3.649264 -0.998150 -2.174220 9.094458 19.129834 16.567352 6.660400 -7.125000 0.000000 0.000000 -8.344800 49.822800 -0.998300 5.331154 -2.395749 -2.009762 82.303371 -0.864179 21.086560 -16.627870 24.577500 -4.559452 0.604592 -0.582600 3.496505 -9.904612 14.691442 -2.796200 7.125000 0.000000 0.000000 11.497800 -14.727600 8.370100 
1.089395 17.849643 -17.026111 -0.397933 -2.664601 7.035526 3.363648 2.915170 1.089689 -23.321420 -7.338725 -10.778624 0.827785 6.192815 19.934070 -0.652664 4.811391 -4.859082 0.025100 1.022700 2.811400 -5.559938 -3.539818 0.532487 27.832751 11.262092 -8.189762 -1.890220 -6.345220 20.712128 0.833964 -6.930531 -6.672930 -0.022100 -0.960300 2.639500 -0.248034 0.060050 4.524808 1.105801 -0.298640 -0.952132 3.196122 0.289083 -3.929379 -9.110684 -5.176175 -13.635269 5.580611 -5.676910 11.944365 3.473500 -2.895500 8.865000 -7.007158 3.381903 -2.271945 -82.464044 1.674202 24.572153 13.885176 -24.840228 -3.683865 -1.127541 -2.056584 8.879602 20.424182 14.750313 6.489700 -7.125000 0.000000 0.000000 -6.429100 48.049800 -0.485600 5.323298 -2.394319 -2.012724 82.341865 -0.926751 21.051449 -16.679945 24.650934 -4.588741 0.602877 -0.573292 3.474114 -9.888387 14.605188 -2.774100 7.125000 0.000000 0.000000 11.512200 -14.823300 8.357000 
